<svg width="200" height="200" viewBox="0 0 200 200" xmlns="http://www.w3.org/2000/svg">
  <!-- Background -->
  <circle cx="100" cy="100" r="100" fill="#F0FFF4"/>
  
  <!-- Car Body -->
  <path d="M40 120 L 50 100 L 70 80 L 130 80 L 150 100 L 160 120 L 160 140 L 40 140 Z" fill="#38A169" stroke="#2F855A" stroke-width="2"/>
  
  <!-- Car Windows -->
  <path d="M70 80 L 80 100 L 120 100 L 130 80 Z" fill="#E6FFFA" stroke="#2F855A" stroke-width="1"/>
  
  <!-- Car Details -->
  <!-- Headlights -->
  <circle cx="50" cy="110" r="5" fill="#FEFCBF" stroke="#2F855A" stroke-width="1"/>
  <circle cx="150" cy="110" r="5" fill="#FEFCBF" stroke="#2F855A" stroke-width="1"/>
  
  <!-- Wheels -->
  <circle cx="60" cy="140" r="15" fill="#2D3748" stroke="#1A202C" stroke-width="2"/>
  <circle cx="60" cy="140" r="5" fill="#A0AEC0"/>
  
  <circle cx="140" cy="140" r="15" fill="#2D3748" stroke="#1A202C" stroke-width="2"/>
  <circle cx="140" cy="140" r="5" fill="#A0AEC0"/>
  
  <!-- Door -->
  <line x1="100" y1="100" x2="100" y2="140" stroke="#2F855A" stroke-width="1"/>
  <circle cx="110" cy="120" r="2" fill="#A0AEC0"/>
  
  <!-- Shield/Protection Symbol -->
  <path d="M100 150 L 80 160 L 80 170 L 100 180 L 120 170 L 120 160 Z" fill="#38A169" opacity="0.8"/>
  <path d="M100 150 L 100 180" fill="none" stroke="#FFFFFF" stroke-width="2"/>
  <path d="M80 165 L 120 165" fill="none" stroke="#FFFFFF" stroke-width="2"/>
  
  <!-- Road -->
  <rect x="20" y="140" width="160" height="20" fill="#4A5568"/>
  <line x1="40" y1="150" x2="60" y2="150" stroke="#FFFFFF" stroke-width="2" stroke-dasharray="5,5"/>
  <line x1="80" y1="150" x2="100" y2="150" stroke="#FFFFFF" stroke-width="2" stroke-dasharray="5,5"/>
  <line x1="120" y1="150" x2="140" y2="150" stroke="#FFFFFF" stroke-width="2" stroke-dasharray="5,5"/>
  <line x1="160" y1="150" x2="180" y2="150" stroke="#FFFFFF" stroke-width="2" stroke-dasharray="5,5"/>
</svg>