<svg xmlns="http://www.w3.org/2000/svg" width="400" height="300" viewBox="0 0 400 300">
  <!-- Background shape -->
  <rect x="10" y="10" width="380" height="280" rx="20" fill="#F7FAFC" stroke="#E2E8F0" stroke-width="2"/>
  
  <!-- Father figure -->
  <g transform="translate(100, 80)">
    <circle cx="0" cy="0" r="25" fill="#4A5568"/>
    <rect x="-15" y="30" width="30" height="60" rx="5" fill="#3182CE"/>
    <rect x="-25" y="30" width="10" height="40" rx="3" fill="#3182CE"/>
    <rect x="15" y="30" width="10" height="40" rx="3" fill="#3182CE"/>
    <rect x="-10" y="90" width="8" height="30" rx="2" fill="#2D3748"/>
    <rect x="2" y="90" width="8" height="30" rx="2" fill="#2D3748"/>
  </g>
  
  <!-- Mother figure -->
  <g transform="translate(160, 85)">
    <circle cx="0" cy="0" r="22" fill="#4A5568"/>
    <path d="M-15,25 Q0,35 15,25 L15,75 L-15,75 Z" fill="#E53E3E"/>
    <rect x="-20" y="30" width="8" height="35" rx="2" fill="#E53E3E"/>
    <rect x="12" y="30" width="8" height="35" rx="2" fill="#E53E3E"/>
    <rect x="-10" y="75" width="8" height="30" rx="2" fill="#2D3748"/>
    <rect x="2" y="75" width="8" height="30" rx="2" fill="#2D3748"/>
  </g>
  
  <!-- Boy figure -->
  <g transform="translate(220, 100)">
    <circle cx="0" cy="0" r="18" fill="#4A5568"/>
    <rect x="-12" y="20" width="24" height="40" rx="4" fill="#38A169"/>
    <rect x="-18" y="25" width="6" height="25" rx="2" fill="#38A169"/>
    <rect x="12" y="25" width="6" height="25" rx="2" fill="#38A169"/>
    <rect x="-8" y="60" width="6" height="25" rx="2" fill="#2D3748"/>
    <rect x="2" y="60" width="6" height="25" rx="2" fill="#2D3748"/>
  </g>
  
  <!-- Girl figure -->
  <g transform="translate(270, 110)">
    <circle cx="0" cy="0" r="15" fill="#4A5568"/>
    <path d="M-10,18 Q0,25 10,18 L10,50 L-10,50 Z" fill="#D53F8C"/>
    <rect x="-14" y="20" width="4" height="20" rx="1" fill="#D53F8C"/>
    <rect x="10" y="20" width="4" height="20" rx="1" fill="#D53F8C"/>
    <rect x="-6" y="50" width="4" height="20" rx="1" fill="#2D3748"/>
    <rect x="2" y="50" width="4" height="20" rx="1" fill="#2D3748"/>
  </g>
  
  <!-- Decorative plants -->
  <g transform="translate(50, 150)">
    <path d="M0,0 C10,-20 20,-10 30,-30 L30,0 Z" fill="#38A169"/>
    <path d="M10,0 C20,-15 30,-5 40,-25 L40,0 Z" fill="#48BB78"/>
    <path d="M20,0 C30,-20 40,-10 50,-30 L50,0 Z" fill="#68D391"/>
  </g>
  
  <g transform="translate(300, 150)">
    <path d="M0,0 C10,-20 20,-10 30,-30 L30,0 Z" fill="#38A169"/>
    <path d="M-10,0 C0,-15 10,-5 20,-25 L20,0 Z" fill="#48BB78"/>
    <path d="M-20,0 C-10,-20 0,-10 10,-30 L10,0 Z" fill="#68D391"/>
  </g>
</svg>