<svg width="200" height="200" viewBox="0 0 200 200" xmlns="http://www.w3.org/2000/svg">
  <!-- Background -->
  <circle cx="100" cy="100" r="100" fill="#E6FFFA"/>
  
  <!-- Medical Cross -->
  <rect x="70" y="50" width="60" height="100" fill="#38B2AC" rx="5" ry="5"/>
  <rect x="50" y="70" width="100" height="60" fill="#38B2AC" rx="5" ry="5"/>
  
  <!-- Heartbeat Line -->
  <path d="M30 120 L 50 120 L 60 90 L 70 140 L 80 110 L 90 120 L 170 120" fill="none" stroke="#E53E3E" stroke-width="3"/>
  
  <!-- Stethoscope -->
  <circle cx="140" cy="70" r="15" fill="#4A5568" stroke="#2D3748" stroke-width="2"/>
  <path d="M140 85 C 140 85, 130 95, 120 95 C 110 95, 110 105, 110 115" fill="none" stroke="#4A5568" stroke-width="4" stroke-linecap="round"/>
  <path d="M140 85 C 140 85, 150 95, 160 95 C 170 95, 170 105, 170 115" fill="none" stroke="#4A5568" stroke-width="4" stroke-linecap="round"/>
  
  <!-- Shield/Protection Symbol -->
  <path d="M100 150 L 80 160 L 80 170 L 100 180 L 120 170 L 120 160 Z" fill="#38B2AC" opacity="0.8"/>
  <path d="M100 150 L 100 180" fill="none" stroke="#FFFFFF" stroke-width="2"/>
  <path d="M80 165 L 120 165" fill="none" stroke="#FFFFFF" stroke-width="2"/>
  
  <!-- Pills -->
  <ellipse cx="40" cy="50" rx="15" ry="8" fill="#FC8181" stroke="#F56565" stroke-width="1" transform="rotate(-30,40,50)"/>
  <ellipse cx="50" cy="40" rx="15" ry="8" fill="#90CDF4" stroke="#63B3ED" stroke-width="1" transform="rotate(30,50,40)"/>
</svg>