<svg width="200" height="200" viewBox="0 0 200 200" xmlns="http://www.w3.org/2000/svg">
  <!-- Background -->
  <circle cx="100" cy="100" r="100" fill="#FEEBC8"/>
  
  <!-- Heart Symbol -->
  <path d="M100 130 L 85 115 Q 70 100 85 85 Q 100 70 100 85 Q 100 70 115 85 Q 130 100 115 115 Z" fill="#F56565" stroke="#C53030" stroke-width="2"/>
  
  <!-- Family Silhouettes -->
  <!-- Adult 1 -->
  <circle cx="70" cy="70" r="15" fill="#4A5568"/>
  <path d="M70 85 L 70 110 L 60 130 L 80 130 Z" fill="#4A5568"/>
  
  <!-- Adult 2 -->
  <circle cx="130" cy="70" r="15" fill="#4A5568"/>
  <path d="M130 85 L 130 110 L 120 130 L 140 130 Z" fill="#4A5568"/>
  
  <!-- Child -->
  <circle cx="100" cy="80" r="10" fill="#4A5568"/>
  <path d="M100 90 L 100 110 L 95 120 L 105 120 Z" fill="#4A5568"/>
  
  <!-- Shield/Protection Symbol -->
  <path d="M100 140 L 80 150 L 80 160 L 100 170 L 120 160 L 120 150 Z" fill="#ED8936" opacity="0.8"/>
  <path d="M100 140 L 100 170" fill="none" stroke="#FFFFFF" stroke-width="2"/>
  <path d="M80 155 L 120 155" fill="none" stroke="#FFFFFF" stroke-width="2"/>
  
  <!-- Sun Rays (Representing Life/Vitality) -->
  <circle cx="40" cy="40" r="15" fill="#F6AD55"/>
  <line x1="40" y1="15" x2="40" y2="10" stroke="#F6AD55" stroke-width="2"/>
  <line x1="40" y1="65" x2="40" y2="70" stroke="#F6AD55" stroke-width="2"/>
  <line x1="15" y1="40" x2="10" y2="40" stroke="#F6AD55" stroke-width="2"/>
  <line x1="65" y1="40" x2="70" y2="40" stroke="#F6AD55" stroke-width="2"/>
  <line x1="25" y1="25" x2="20" y2="20" stroke="#F6AD55" stroke-width="2"/>
  <line x1="55" y1="55" x2="60" y2="60" stroke="#F6AD55" stroke-width="2"/>
  <line x1="25" y1="55" x2="20" y2="60" stroke="#F6AD55" stroke-width="2"/>
  <line x1="55" y1="25" x2="60" y2="20" stroke="#F6AD55" stroke-width="2"/>
</svg>